<?xml version="1.0" standalone="no"?>
<!DOCTYPE svg PUBLIC "-//W3C//DTD SVG 20010904//EN"
 "http://www.w3.org/TR/2001/REC-SVG-20010904/DTD/svg10.dtd">
<svg version="1.0" xmlns="http://www.w3.org/2000/svg"
 width="700.000000pt" height="700.000000pt" viewBox="0 0 700.000000 700.000000"
 preserveAspectRatio="xMidYMid meet">
<metadata>
Created by potrace 1.11, written by Peter Selinger 2001-2013
</metadata>
<g transform="translate(0.000000,700.000000) scale(0.100000,-0.100000)"
fill="#000000" stroke="none">
<path d="M4760 6959 c-169 -29 -311 -152 -378 -325 l-27 -69 -3 -836 -3 -836
493 -476 493 -477 3 1293 c1 899 -1 1308 -9 1345 -24 119 -123 258 -225 318
-97 57 -234 82 -344 63z m191 -83 c139 -37 254 -147 294 -283 13 -44 15 -212
13 -1259 l-3 -1209 -413 400 -413 399 4 816 c2 729 5 820 19 863 73 206 292
327 499 273z"/>
<path d="M1545 6174 c-206 -27 -369 -169 -426 -369 -20 -71 -21 -2638 -1
-2790 77 -588 319 -1073 732 -1468 357 -343 796 -558 1303 -639 172 -27 484
-29 661 -4 431 62 804 217 1150 479 106 80 309 279 401 392 227 280 401 642
479 995 29 134 59 375 54 447 l-3 49 -810 782 c-715 691 -812 788 -825 827 -8
25 -17 45 -20 44 -10 -1 -108 -125 -148 -188 -178 -275 -170 -657 19 -938 17
-27 252 -269 520 -538 341 -342 489 -497 489 -512 0 -26 -25 -53 -48 -53 -9 0
-179 162 -377 360 l-361 361 -24 -53 c-35 -76 -75 -134 -144 -206 l-59 -62
215 0 c119 0 230 -3 247 -6 30 -6 32 -9 29 -42 l-3 -35 -420 -239 c-665 -378
-671 -381 -693 -369 -28 15 -35 40 -18 65 8 12 213 134 457 271 l442 250
-1237 5 c-1325 5 -1255 3 -1256 51 0 44 -7 44 786 49 l753 5 -68 78 c-82 93
-132 191 -156 307 -10 47 -20 87 -21 89 -2 2 -28 -18 -57 -46 -117 -111 -246
-170 -392 -180 -266 -18 -515 155 -601 417 -17 51 -19 124 -24 1040 -5 929 -7
988 -24 1034 -63 163 -182 278 -335 321 -53 15 -143 24 -186 19z m194 -103
c109 -41 199 -130 243 -238 l23 -58 5 -980 c7 -1095 1 -1012 80 -1173 31 -61
60 -102 113 -155 134 -134 285 -199 467 -199 154 -1 260 30 377 108 36 24 67
44 69 44 2 0 4 -7 4 -14 0 -19 60 -148 95 -203 l26 -43 -683 0 c-628 0 -686
-1 -708 -17 -36 -25 -48 -43 -55 -85 -8 -45 15 -99 53 -125 26 -17 87 -18
1122 -23 l1095 -5 -310 -175 c-170 -96 -322 -186 -338 -200 -39 -35 -52 -94
-29 -139 24 -48 62 -74 110 -74 34 0 121 47 573 303 294 166 548 313 564 325
l30 23 175 -172 c181 -179 199 -191 263 -179 34 7 85 55 93 89 3 13 3 41 -1
62 -6 32 -69 99 -504 537 -515 518 -540 546 -596 682 -72 178 -72 397 1 580
28 71 107 203 122 203 5 0 366 -345 803 -767 727 -703 794 -770 797 -803 9
-94 -36 -380 -89 -565 -151 -529 -508 -1005 -980 -1307 -287 -184 -612 -303
-959 -349 -144 -20 -481 -17 -620 5 -661 102 -1233 465 -1601 1016 -138 208
-260 483 -318 722 -68 280 -65 197 -68 1648 -3 841 0 1338 6 1379 26 167 165
312 328 341 65 12 164 3 222 -19z m2681 -2856 l54 -55 -92 0 c-51 0 -92 2 -92
5 0 9 65 105 70 105 3 0 30 -25 60 -55z"/>
<path d="M2535 5271 c-89 -32 -138 -63 -201 -125 -65 -65 -102 -127 -128 -215
-24 -82 -24 -1050 0 -1132 37 -123 120 -231 228 -294 145 -84 347 -85 492 0
64 37 152 128 186 191 56 104 58 123 58 674 0 437 -2 514 -16 561 -26 88 -63
150 -128 215 -64 64 -112 94 -205 125 -72 25 -216 25 -286 0z m255 -72 c124
-28 238 -139 286 -279 18 -51 19 -90 19 -555 0 -464 -1 -504 -19 -555 -40
-117 -119 -204 -232 -257 -77 -36 -206 -44 -286 -17 -99 32 -169 86 -225 172
-66 102 -66 100 -70 601 -5 514 0 582 48 678 89 176 274 258 479 212z"/>
<path d="M3620 5271 c-171 -54 -307 -207 -340 -380 -14 -72 -14 -1330 0 -1402
43 -226 253 -399 484 -399 211 0 399 137 467 339 l21 61 -91 96 c-50 53 -111
127 -136 164 -229 345 -209 804 50 1127 53 66 74 85 106 94 21 7 39 16 39 21
0 5 -16 34 -35 64 -68 106 -179 190 -290 219 -79 20 -206 19 -275 -4z m260
-73 c79 -24 151 -72 206 -137 l23 -28 -50 -54 c-103 -111 -185 -259 -236 -424
-25 -84 -27 -102 -27 -275 0 -172 2 -191 27 -275 53 -177 138 -322 271 -463
36 -38 66 -75 66 -81 0 -6 -12 -35 -26 -63 -39 -76 -117 -153 -193 -191 -62
-30 -72 -32 -176 -32 -98 0 -116 3 -167 27 -115 54 -192 141 -229 257 -18 60
-19 97 -19 729 0 707 1 716 48 809 34 65 114 140 187 175 98 45 199 54 295 26z"/>
<path d="M1960 935 l0 -365 1535 0 1535 0 0 365 c0 201 -2 365 -5 365 -2 0
-62 -38 -132 -84 -437 -288 -889 -426 -1393 -426 -504 0 -957 139 -1393 426
-70 46 -132 84 -137 84 -6 0 -10 -136 -10 -365z m148 187 c223 -149 542 -284
821 -347 359 -81 746 -84 1105 -9 287 60 631 203 859 356 l57 39 0 -256 0
-255 -1455 0 -1455 0 0 255 c0 140 2 255 6 255 3 0 31 -17 62 -38z"/>
<path d="M1962 253 l3 -218 1533 -3 1532 -2 0 220 0 220 -1535 0 -1535 0 2
-217z m2988 -3 l0 -140 -1455 0 -1455 0 0 140 0 140 1455 0 1455 0 0 -140z"/>
</g>
</svg>
